<svg width="512" height="512" version="1.1" viewBox="0 0 512 512" xml:space="preserve" xmlns="http://www.w3.org/2000/svg"><g stroke-linecap="round" stroke-linejoin="round"><path d="m128.83 49.641-105.08 95.274 13.931 96.035 36.131 50.127 46.849 59.071 61.755 54.449 16.466 3.3149 61.755 54.449 10.843-19.471 107.53-98.583 5.4828-11.756 72.262-100.25 17.577-13.003 13.931-96.035-17.577 13.003-36.274-33.643 3.9438-15.353-36.274-33.643-14.657 1.0523-62.893 5.7335-21.463 17.234-35.772 54.328-43.398-73.663z" fill="#33001f" stroke="#33001f" stroke-width="32" style="paint-order:markers stroke fill"/><g stroke-width="3.7795"><path d="m262.29 151.31-43.398-73.663-95.069-8.6668-72.548 67.286 13.931 96.035 72.262 100.25 123.51 108.9z" fill="#4d004d" style="paint-order:markers stroke fill"/><path d="m259.67 151.31 43.398-73.663 95.069-8.6668 72.548 67.286-13.931 96.035-72.262 100.25-123.51 108.9z" fill="#4d004d" style="paint-order:markers stroke fill"/><path d="m123.82 68.976-72.548 67.286 110.91 6.5369z" fill="#8000ff" style="paint-order:markers stroke fill"/><path d="m267.29 131.97-43.398-73.663-95.069-8.6668 60.462 116.35z" fill="#33f" style="paint-order:markers stroke fill"/><path d="m134.65 151.45-110.91-6.5369 13.931 96.035 36.131 50.127 82.947-97.101z" fill="#c0c" style="paint-order:markers stroke fill"/><path d="m95.638 282.59 36.131 50.127 128.46-57.093-42.317-98.225-35.174-1.9237z" fill="#8000ff" style="paint-order:markers stroke fill"/><path d="m274.18 287.34-29.665 94.605-62.104 22.651-61.755-54.449z" fill="#ff1a8c" style="paint-order:markers stroke fill"/><path d="m198.87 407.91 61.755 54.449 0.34864-77.099z" fill="#33f" style="paint-order:markers stroke fill"/><path d="m219.91 159.03 110.52 97.513 19.188-65.462-87.328-39.777z" fill="#ff1a8c" style="paint-order:markers stroke fill"/><path d="m260.67 373.9 27.881-83.72 153.89-55.489-72.262 100.25z" fill="#f00" style="paint-order:markers stroke fill"/><path d="m271.22 386.79 0.25367 56.096 107.53-98.583z" fill="#8000ff" style="paint-order:markers stroke fill"/><path d="m368.27 140-30.008 118.57 74.803-20.076-7.5546-22.207 65.167-80.026-36.274-33.643z" fill="#33f" style="paint-order:markers stroke fill"/></g><g fill="#c0c" stroke-width="3.7795"><path d="m347.9 183.27 39.516-128.6-62.893 5.7335-59.692 82.123z" style="paint-order:markers stroke fill"/><path d="m488.26 123.26-73.132 93.885 6.9352 20.136 52.266-17.986z" style="paint-order:markers stroke fill"/><path d="m237.03 191.24 32.607 88.932 63.305-11.042z" style="paint-order:markers stroke fill"/></g><path d="m141.76 149.32 21.955 38.282 14.844-23.284-8.1682-15.928z" fill="#ff1a8c" stroke-width="3.7795" style="paint-order:markers stroke fill"/><path d="m402.08 53.623-29.86 71.024 66.134-37.381z" fill="#ff1a8c" stroke-width="3.7795" style="paint-order:markers stroke fill"/></g></svg>
