<?xml version="1.0" encoding="UTF-8" standalone="no"?>
<!-- Created with Inkscape (http://www.inkscape.org/) -->

<svg
   width="512"
   height="512"
   viewBox="0 0 512 512"
   version="1.1"
   id="svg1"
   xml:space="preserve"
   inkscape:version="1.3.2 (091e20ef0f, 2023-11-25, custom)"
   sodipodi:docname="_heart.svg"
   xmlns:inkscape="http://www.inkscape.org/namespaces/inkscape"
   xmlns:sodipodi="http://sodipodi.sourceforge.net/DTD/sodipodi-0.dtd"
   xmlns="http://www.w3.org/2000/svg"
   xmlns:svg="http://www.w3.org/2000/svg"><sodipodi:namedview
     id="namedview1"
     pagecolor="#ffffff"
     bordercolor="#000000"
     borderopacity="0.25"
     inkscape:showpageshadow="2"
     inkscape:pageopacity="0.0"
     inkscape:pagecheckerboard="0"
     inkscape:deskcolor="#d1d1d1"
     inkscape:document-units="px"
     inkscape:zoom="0.5078125"
     inkscape:cx="-289.47692"
     inkscape:cy="529.72308"
     inkscape:window-width="1912"
     inkscape:window-height="1052"
     inkscape:window-x="0"
     inkscape:window-y="0"
     inkscape:window-maximized="1"
     inkscape:current-layer="layer1" /><defs
     id="defs1" /><g
     inkscape:label="Layer 1"
     inkscape:groupmode="layer"
     id="layer1"><path
       style="fill:#33001f;fill-opacity:1;stroke:#33001f;stroke-width:32;stroke-linecap:round;stroke-linejoin:round;stroke-dasharray:none;stroke-opacity:1;paint-order:markers stroke fill"
       d="m 128.82523,49.64083 -105.0827,95.27369 13.931249,96.03462 36.130886,50.12727 46.848985,59.07091 61.75509,54.4489 16.4655,3.31491 61.75509,54.4489 10.84292,-19.47057 107.53309,-98.5827 5.4828,-11.75569 72.26177,-100.25454 17.57675,-13.0032 13.93124,-96.03462 -17.57674,13.0032 -36.27403,-33.64298 3.94383,-15.35303 -36.27402,-33.642976 -14.65727,1.052277 -62.89253,5.733473 -21.46285,17.234045 -35.77192,54.327561 -43.39832,-73.662689 z"
       id="path15" /><path
       style="fill:#4d004d;fill-opacity:1;stroke-width:3.77953;stroke-linecap:round;stroke-linejoin:round;paint-order:markers stroke fill"
       d="M 262.28997,151.30541 218.89165,77.642723 123.82284,68.975962 51.274779,136.26191 65.206029,232.29653 137.46779,332.55108 260.97797,441.44887 Z"
       id="path1"
       sodipodi:nodetypes="cccccccc" /><path
       style="fill:#4d004d;fill-opacity:1;stroke-width:3.77953;stroke-linecap:round;stroke-linejoin:round;paint-order:markers stroke fill"
       d="m 259.66596,151.30541 43.39833,-73.662691 95.06881,-8.666763 72.54806,67.285954 -13.93125,96.03462 -72.26177,100.25454 -123.51017,108.8978 z"
       id="path1-3"
       sodipodi:nodetypes="cccccccc" /><path
       style="fill:#8000ff;fill-opacity:1;stroke-width:3.77953;stroke-linecap:round;stroke-linejoin:round;paint-order:markers stroke fill"
       d="M 123.82284,68.975966 51.274783,136.26192 162.18606,142.79881 Z"
       id="path1-2"
       sodipodi:nodetypes="cccc" /><path
       style="fill:#3333ff;fill-opacity:1;stroke-width:3.77953;stroke-linecap:round;stroke-linejoin:round;paint-order:markers stroke fill"
       d="M 267.29237,131.97028 223.89405,58.307591 128.82523,49.64083 189.28676,165.98775 Z"
       id="path1-6"
       sodipodi:nodetypes="ccccc" /><path
       style="fill:#cc00cc;fill-opacity:1;stroke-width:3.77953;stroke-linecap:round;stroke-linejoin:round;paint-order:markers stroke fill"
       d="m 134.65381,151.45141 -110.91128,-6.53689 13.931249,96.03462 36.130886,50.12727 82.947465,-97.10092 z"
       id="path2" /><path
       style="fill:#8000ff;fill-opacity:1;stroke-width:3.77953;stroke-linecap:round;stroke-linejoin:round;paint-order:markers stroke fill"
       d="m 95.637573,282.58933 36.130877,50.12726 128.45968,-57.09277 -42.31732,-98.22455 -35.1735,-1.92371 z"
       id="path3"
       sodipodi:nodetypes="cccccc" /><path
       style="fill:#ff1a8c;fill-opacity:1;stroke-width:3.77953;stroke-linecap:round;stroke-linejoin:round;paint-order:markers stroke fill"
       d="m 274.17713,287.34043 -29.66467,94.60522 -62.10372,22.65057 -61.75509,-54.4489 z"
       id="path4"
       sodipodi:nodetypes="ccccc" /><path
       style="fill:#3333ff;fill-opacity:1;stroke-width:3.77953;stroke-linecap:round;stroke-linejoin:round;paint-order:markers stroke fill"
       d="m 198.87424,407.91113 61.75509,54.4489 0.34864,-77.09946 z"
       id="path5" /><path
       style="fill:#ff1a8c;fill-opacity:1;stroke-width:3.77953;stroke-linecap:round;stroke-linejoin:round;paint-order:markers stroke fill"
       d="m 219.90694,159.03183 110.52295,97.51269 19.18773,-65.46167 -87.32765,-39.77744 z"
       id="path6"
       sodipodi:nodetypes="ccccc" /><path
       style="fill:#ff0000;fill-opacity:1;stroke-width:3.77953;stroke-linecap:round;stroke-linejoin:round;paint-order:markers stroke fill"
       d="m 260.6725,373.89658 27.88139,-83.72015 153.88628,-55.4889 -72.26177,100.25453 z"
       id="path7"
       sodipodi:nodetypes="ccccc" /><path
       style="fill:#8000ff;fill-opacity:1;stroke-width:3.77953;stroke-linecap:round;stroke-linejoin:round;paint-order:markers stroke fill"
       d="m 271.21858,386.79366 0.25367,56.0958 107.53309,-98.5827 z"
       id="path8"
       sodipodi:nodetypes="cccc" /><path
       style="fill:#3333ff;fill-opacity:1;stroke-width:3.77953;stroke-linecap:round;stroke-linejoin:round;paint-order:markers stroke fill"
       d="m 368.27344,140.00011 -30.00787,118.57069 74.80307,-20.07623 -7.55458,-22.20651 65.1671,-80.02615 -36.27403,-33.64298 z"
       id="path9"
       sodipodi:nodetypes="ccccccc" /><path
       style="fill:#cc00cc;fill-opacity:1;stroke-width:3.77953;stroke-linecap:round;stroke-linejoin:round;paint-order:markers stroke fill"
       d="M 347.90372,183.27082 387.41967,54.675201 324.52714,60.408674 264.83512,142.53149 Z"
       id="path10"
       sodipodi:nodetypes="ccccc" /><path
       style="fill:#cc00cc;fill-opacity:1;stroke-width:3.77953;stroke-linecap:round;stroke-linejoin:round;paint-order:markers stroke fill"
       d="m 488.2579,123.25871 -73.13196,93.88466 6.93516,20.13568 52.26556,-17.98572 z"
       id="path11" /><path
       style="fill:#cc00cc;fill-opacity:1;stroke-width:3.77953;stroke-linecap:round;stroke-linejoin:round;paint-order:markers stroke fill"
       d="m 237.02689,191.23758 32.6068,88.93244 63.30532,-11.04159 z"
       id="path12"
       sodipodi:nodetypes="cccc" /><path
       style="fill:#ff1a8c;fill-opacity:1;stroke-width:3.77953;stroke-linecap:round;stroke-linejoin:round;paint-order:markers stroke fill"
       d="m 141.7624,149.31782 21.95549,38.2816 14.84374,-23.28356 -8.16818,-15.92795 z"
       id="path13" /><path
       style="fill:#ff1a8c;fill-opacity:1;stroke-width:3.77953;stroke-linecap:round;stroke-linejoin:round;paint-order:markers stroke fill"
       d="M 402.07694,53.622924 372.21728,124.64709 438.35096,87.2659 Z"
       id="path14" /></g></svg>
